/* XPM */
static char * esc_client_16_xpm[] = {
"16 16 129 2",
"  	c None",
". 	c #1C1C1C",
"+ 	c #101010",
"@ 	c #1D1D1D",
"# 	c #3B3B3B",
"$ 	c #4F4F4F",
"% 	c #6C6C6D",
"& 	c #8F9091",
"* 	c #484848",
"= 	c #0A0A0A",
"- 	c #323232",
"; 	c #3F3F3F",
"> 	c #95989E",
", 	c #9CA5B4",
"' 	c #A4B2C9",
") 	c #A9B9D3",
"! 	c #8A919C",
"~ 	c #393939",
"{ 	c #1A1A1A",
"] 	c #9C9C9D",
"^ 	c #B1B8C3",
"/ 	c #9CACC5",
"( 	c #97ACCD",
"_ 	c #9AAFD1",
": 	c #AABBD7",
"< 	c #AFBACB",
"[ 	c #4B515B",
"} 	c #434548",
"| 	c #585858",
"1 	c #222222",
"2 	c #AAB1BE",
"3 	c #9CB1D3",
"4 	c #B6C4D9",
"5 	c #D0D4DA",
"6 	c #D2D2D2",
"7 	c #C2C2C2",
"8 	c #606060",
"9 	c #696969",
"0 	c #909090",
"a 	c #6A6A6A",
"b 	c #626262",
"c 	c #242424",
"d 	c #232323",
"e 	c #A5AEBB",
"f 	c #B8C6DD",
"g 	c #D8D9DD",
"h 	c #B8B8B8",
"i 	c #B9B9B9",
"j 	c #AEAEAB",
"k 	c #4A4A44",
"l 	c #90908F",
"m 	c #51514A",
"n 	c #55533F",
"o 	c #5A5A55",
"p 	c #2B2B2B",
"q 	c #252525",
"r 	c #A4ACB9",
"s 	c #B8C6DE",
"t 	c #DADCDF",
"u 	c #C9C9C9",
"v 	c #C4C6CA",
"w 	c #7D7F7D",
"x 	c #6A5E29",
"y 	c #9D9781",
"z 	c #7C7763",
"A 	c #C2BF95",
"B 	c #87826E",
"C 	c #56523B",
"D 	c #15140D",
"E 	c #A2AAB7",
"F 	c #B7C6DF",
"G 	c #B4BED9",
"H 	c #B4BED6",
"I 	c #A1ADCE",
"J 	c #616873",
"K 	c #988420",
"L 	c #DBBF3F",
"M 	c #DAC571",
"N 	c #ECD056",
"O 	c #D4A83A",
"P 	c #BF8821",
"Q 	c #221805",
"R 	c #272727",
"S 	c #A1A9B5",
"T 	c #B1C2DD",
"U 	c #AAB9D9",
"V 	c #B2C0DD",
"W 	c #A5B7D5",
"X 	c #646F78",
"Y 	c #99831D",
"Z 	c #F0E67E",
"` 	c #C1C286",
" .	c #342C06",
"..	c #B18B11",
"+.	c #DD9A13",
"@.	c #261A03",
"#.	c #262626",
"$.	c #ABB0B8",
"%.	c #B6C5DF",
"&.	c #A1B2CE",
"*.	c #8D9CB3",
"=.	c #818A99",
"-.	c #4D5051",
";.	c #7D6512",
">.	c #EBDC6E",
",.	c #D8D893",
"'.	c #64590D",
").	c #D8AE19",
"!.	c #DD9B13",
"~.	c #757576",
"{.	c #727478",
"].	c #535456",
"^.	c #424242",
"/.	c #1E1E1E",
"(.	c #030303",
"_.	c #312504",
":.	c #AE9C3A",
"<.	c #DBD176",
"[.	c #BCA313",
"}.	c #D5A415",
"|.	c #AF7B0F",
"1.	c #201603",
"2.	c #171717",
"3.	c #0D0D0D",
"4.	c #272209",
"5.	c #2C2914",
"6.	c #2D2604",
"7.	c #2D2204",
"8.	c #2B1F04",
"                                ",
"                                ",
"                    . +         ",
"            @ # $ % & *         ",
"    = - - ; > , ' ) ! ~         ",
"  { ] ^ / ( _ : < [ } | 1       ",
"  1 2 3 4 5 6 7 8 9 0 a b c     ",
"  d e f g h i j k l m n o p     ",
"  q r s t u v w x y z A B C D   ",
"  q E F G H I J K L M N O P Q   ",
"  R S T U V W X Y Z `  ...+.@.  ",
"  #.$.%.&.*.=.-.;.>.,.'.).!.@.  ",
"  @ ~.{.].^./.(._.:.<.[.}.|.1.  ",
"  = 2.3.{.        4.5.6.7.8.    ",
"                                ",
"                                "};
